# xmcd
#
# Track frame offsets:
#	150
#	28352
#	69700
#	104589
#	156894
#	190885
#
# Disc length: 2993 seconds
#
# Revision: 1
# Processed by: cddbd v1.4PL0 Copyright (c) Steve Scherf et al.
# Submitted via: audiograbber 1.81.01
#
DISCID=550baf06
DTITLE=Dmitri Kolesnik - Blues For Dad
DYEAR=2001
DGENRE=Blues
TTITLE0=Blues For Dad
TTITLE1=Home
TTITLE2=Waltz for B. E.
TTITLE3=New York Wind
TTITLE4=White Nights, Gray Days
TTITLE5=giving Rise to Doubt
EXTD=
EXTT0=
EXTT1=
EXTT2=
EXTT3=
EXTT4=
EXTT5=
PLAYORDER=
